<?xml version="1.0" encoding="utf-8"?><svg xmlns="http://www.w3.org/2000/svg" xmlns:xlink="http://www.w3.org/1999/xlink"><symbol viewBox="0 0 444.819 444.819" id="arr" xmlns="http://www.w3.org/2000/svg"><path d="M352.025 196.712L165.884 10.848C159.029 3.615 150.469 0 140.187 0s-18.842 3.619-25.697 10.848L92.792 32.264c-7.044 7.043-10.566 15.604-10.566 25.692 0 9.897 3.521 18.56 10.566 25.981L231.545 222.41 92.786 361.168c-7.042 7.043-10.564 15.604-10.564 25.693 0 9.896 3.521 18.562 10.564 25.98l21.7 21.413c7.043 7.043 15.612 10.564 25.697 10.564 10.089 0 18.656-3.521 25.697-10.564L352.025 248.39c7.046-7.423 10.571-16.084 10.571-25.981.001-10.088-3.525-18.654-10.571-25.697z"/></symbol><symbol viewBox="0 0 451.847 451.847" id="bottom" xmlns="http://www.w3.org/2000/svg"><path d="M225.923 354.706c-8.098 0-16.195-3.092-22.369-9.263L9.27 151.157c-12.359-12.359-12.359-32.397 0-44.751 12.354-12.354 32.388-12.354 44.748 0l171.905 171.915 171.906-171.909c12.359-12.354 32.391-12.354 44.744 0 12.365 12.354 12.365 32.392 0 44.751L248.292 345.449c-6.177 6.172-14.274 9.257-22.369 9.257z"/></symbol><symbol viewBox="0 -46 417.813 417" id="check" xmlns="http://www.w3.org/2000/svg"><path d="M159.988 318.582c-3.988 4.012-9.43 6.25-15.082 6.25s-11.094-2.238-15.082-6.25L9.375 198.113c-12.5-12.5-12.5-32.77 0-45.246l15.082-15.086c12.504-12.5 32.75-12.5 45.25 0l75.2 75.203L348.104 9.781c12.504-12.5 32.77-12.5 45.25 0l15.082 15.086c12.5 12.5 12.5 32.766 0 45.246zm0 0"/></symbol><symbol viewBox="0 0 511.072 511.072" id="comment" xmlns="http://www.w3.org/2000/svg"><path d="M74.39 480.536H38.177l25.607-25.607c13.807-13.807 22.429-31.765 24.747-51.246-36.029-23.644-62.375-54.751-76.478-90.425C-2.04 277.611-3.811 238.37 6.932 199.776c12.89-46.309 43.123-88.518 85.128-118.853 45.646-32.963 102.47-50.387 164.33-50.387 77.927 0 143.611 22.389 189.948 64.745 41.744 38.159 64.734 89.63 64.734 144.933 0 26.868-5.471 53.011-16.26 77.703-11.165 25.551-27.514 48.302-48.593 67.619-46.399 42.523-112.042 65-189.83 65-28.877 0-59.01-3.855-85.913-10.929-25.465 26.123-59.972 40.929-96.086 40.929zm182-420c-124.039 0-200.15 73.973-220.557 147.285-19.284 69.28 9.143 134.743 76.043 175.115l7.475 4.511-.23 8.727c-.456 17.274-4.574 33.912-11.945 48.952 17.949-6.073 34.236-17.083 46.99-32.151l6.342-7.493 9.405 2.813c26.393 7.894 57.104 12.241 86.477 12.241 154.372 0 224.682-93.473 224.682-180.322 0-46.776-19.524-90.384-54.976-122.79-40.713-37.216-99.397-56.888-169.706-56.888z"/></symbol><symbol viewBox="0 0 512 512" id="computer" xmlns="http://www.w3.org/2000/svg"><path d="M39.822 59.733v295.822h432.355V59.733H39.822zm392.533 238.933H79.644V99.555h352.711v199.111zM312.889 384v28.444H199.111V384H0v11.378c0 31.289 25.6 56.889 56.889 56.889h398.222c31.289 0 56.889-25.6 56.889-56.889V384H312.889z"/></symbol><symbol viewBox="0 0 512 512" id="eye" xmlns="http://www.w3.org/2000/svg"><path d="M508.177 245.995C503.607 240.897 393.682 121 256 121S8.394 240.897 3.823 245.995a15.002 15.002 0 000 20.01C8.394 271.103 118.32 391 256 391s247.606-119.897 252.177-124.995a15.004 15.004 0 000-20.01zM256 361c-57.891 0-105-47.109-105-105s47.109-105 105-105 105 47.109 105 105-47.109 105-105 105z"/><path d="M271 226c0-15.09 7.491-28.365 18.887-36.53C279.661 184.235 268.255 181 256 181c-41.353 0-75 33.647-75 75s33.647 75 75 75c37.024 0 67.668-27.034 73.722-62.358C299.516 278.367 271 255.522 271 226z"/></symbol><symbol viewBox="0 0 24 24" id="facebook" xmlns="http://www.w3.org/2000/svg"><path d="M15.997 3.985h2.191V.169C17.81.117 16.51 0 14.996 0c-3.159 0-5.323 1.987-5.323 5.639V9H6.187v4.266h3.486V24h4.274V13.267h3.345l.531-4.266h-3.877V6.062c.001-1.233.333-2.077 2.051-2.077z"/></symbol><symbol viewBox="0 0 512.081 512.081" id="fire" xmlns="http://www.w3.org/2000/svg"><path d="M327.422 490.31c18.552-37.104 40.66-100.284 9.776-127.528-28.468 4.275-51.488 4.301-70.218.096-47.164-10.59-62.093-47.957-49.108-95.81-63.456 57.989-66.135 143.494-42.611 225.83 3.821 13.375-11.15 24.33-22.743 16.602-3.948-2.632-96.68-65.567-96.68-162.481 0-158.769 180-165.6 180-332 0-12.711 14.894-19.668 24.641-11.492 71.928 60.337 202.812 205.378 195.467 338.776-3.641 66.132-39.57 122.385-106.788 167.197-12.714 8.473-28.59-5.483-21.736-19.19z"/></symbol><symbol viewBox="0 0 96.828 96.827" id="gplus" xmlns="http://www.w3.org/2000/svg"><path d="M62.617 0H39.525c-10.29 0-17.413 2.256-23.824 7.552-5.042 4.35-8.051 10.672-8.051 16.912 0 9.614 7.33 19.831 20.913 19.831 1.306 0 2.752-.134 4.028-.253l-.188.457c-.546 1.308-1.063 2.542-1.063 4.468 0 3.75 1.809 6.063 3.558 8.298l.22.283-.391.027c-5.609.384-16.049 1.1-23.675 5.787-9.007 5.355-9.707 13.145-9.707 15.404 0 8.988 8.376 18.06 27.09 18.06 21.76 0 33.146-12.005 33.146-23.863.002-8.771-5.141-13.101-10.6-17.698l-4.605-3.582c-1.423-1.179-3.195-2.646-3.195-5.364 0-2.672 1.772-4.436 3.336-5.992l.163-.165c4.973-3.917 10.609-8.358 10.609-17.964 0-9.658-6.035-14.649-8.937-17.048h7.663a.488.488 0 00.266-.077l6.601-4.15A.5.5 0 0062.617 0zM34.614 91.535c-13.264 0-22.176-6.195-22.176-15.416 0-6.021 3.645-10.396 10.824-12.997 5.749-1.935 13.17-2.031 13.244-2.031 1.257 0 1.889 0 2.893.126 9.281 6.605 13.743 10.073 13.743 16.678-.001 8.414-7.101 13.64-18.528 13.64zm-.125-50.779c-11.132 0-15.752-14.633-15.752-22.468 0-3.984.906-7.042 2.77-9.351 2.023-2.531 5.487-4.166 8.825-4.166 10.221 0 15.873 13.738 15.873 23.233 0 1.498 0 6.055-3.148 9.22-2.117 2.113-5.56 3.532-8.568 3.532zm60.493 4.467H82.814V33.098a.5.5 0 00-.5-.5H77.08a.5.5 0 00-.5.5v12.125H64.473a.5.5 0 00-.5.5v5.304a.5.5 0 00.5.5H76.58V63.73a.5.5 0 00.5.5h5.234c.275 0 .5-.225.5-.5V51.525h12.168a.5.5 0 00.5-.5v-5.302c0-.277-.223-.5-.5-.5z"/></symbol><symbol viewBox="0 0 24 24" id="guide" xmlns="http://www.w3.org/2000/svg"><path d="M8.5 17.25a.745.745 0 01-.48-.174l-3-2.5a.748.748 0 010-1.152l3-2.5a.75.75 0 11.961 1.152L6.672 14l2.309 1.924A.75.75 0 018.5 17.25zm6 0a.748.748 0 01-.48-1.326L16.328 14l-2.309-1.924a.75.75 0 11.961-1.152l3 2.5a.751.751 0 010 1.152l-3 2.5a.745.745 0 01-.48.174zm-4 1a.75.75 0 01-.721-.956l2-7a.75.75 0 011.442.412l-2 7a.75.75 0 01-.721.544z"/></symbol><symbol viewBox="0 -28 512 512" id="heart" xmlns="http://www.w3.org/2000/svg"><path d="M471.383 44.578C444.879 15.832 408.512 0 368.973 0c-29.555 0-56.621 9.344-80.45 27.77C276.5 37.07 265.605 48.45 256 61.73c-9.602-13.277-20.5-24.66-32.527-33.96C199.648 9.344 172.582 0 143.027 0c-39.539 0-75.91 15.832-102.414 44.578C14.426 72.988 0 111.801 0 153.871c0 43.3 16.137 82.938 50.781 124.742 30.992 37.395 75.535 75.356 127.117 119.313 17.614 15.012 37.579 32.027 58.309 50.152A30.023 30.023 0 00256 455.516a30.03 30.03 0 0019.785-7.43c20.73-18.129 40.707-35.152 58.328-50.172 51.575-43.95 96.117-81.906 127.11-119.305C495.867 236.81 512 197.172 512 153.867c0-42.066-14.426-80.879-40.617-109.289zm0 0"/></symbol><symbol viewBox="0 0 512 512" id="html-5" xmlns="http://www.w3.org/2000/svg"><path d="M32 0l40.8 460.8L256 512l183.136-51.168L480 0H32zm359.52 150.688H176.768l5.12 57.888H386.4l-15.392 173.568L256 414.24l-.064.032-114.944-32.128-8.064-90.784h56.32l4.16 47.104 62.496 17.024.096-.064 62.56-17.024 6.528-73.312H130.624l-15.168-170.88h281.056l-4.992 56.48z"/></symbol><symbol viewBox="0 0 401.991 401.991" id="minus" xmlns="http://www.w3.org/2000/svg"><path d="M394 154.174c-5.331-5.33-11.806-7.995-19.417-7.995H27.406c-7.611 0-14.084 2.665-19.414 7.995C2.662 159.503 0 165.972 0 173.587v54.82c0 7.617 2.662 14.086 7.992 19.41 5.33 5.332 11.803 7.994 19.414 7.994h347.176c7.611 0 14.086-2.662 19.417-7.994 5.325-5.324 7.991-11.793 7.991-19.41v-54.82c.001-7.615-2.658-14.087-7.99-19.413z"/></symbol><symbol viewBox="0 0 128 128" id="pencil" xmlns="http://www.w3.org/2000/svg"><path d="M122.922 23.474l-18.4-18.4a1.75 1.75 0 00-2.474 0l-85 85a1.649 1.649 0 00-.119.146c-.026.032-.054.061-.078.095a1.746 1.746 0 00-.191.349l-6.919 17.563v.006l-5.054 12.809a1.751 1.751 0 002.271 2.271l12.809-5.052 17.559-6.925a1.773 1.773 0 00.349-.191c.034-.024.063-.052.1-.078a1.794 1.794 0 00.145-.119L99.65 49.22l23.267-23.268a1.75 1.75 0 00.005-2.478zM98.415 45.506L82.494 29.585l4.982-4.985 15.92 15.92zm-61.726 61.726l-3.5-3.5 59.248-59.254 3.5 3.5zm-9.944-9.944L86 38.037 89.963 42l-59.251 59.255zm-5.977-5.977L80.019 32.06l3.5 3.5-59.248 59.254zm-8.757 20.7l3.977 3.977-6.567 2.59zm7.526 2.577l-6.126-6.126 5.532-14.028 4.088 4.088 6.436 6.436 4.088 4.088zm86.334-76.538L89.95 22.129l13.339-13.338 15.921 15.92z"/></symbol><symbol viewBox="0 0 512 512" id="phone" xmlns="http://www.w3.org/2000/svg"><path d="M298.667 25.6h-85.333a8.536 8.536 0 00-8.533 8.533 8.536 8.536 0 008.533 8.533h85.333a8.536 8.536 0 008.533-8.533 8.536 8.536 0 00-8.533-8.533zm59.733 0h-8.533a8.536 8.536 0 00-8.533 8.533 8.536 8.536 0 008.533 8.533h8.533a8.536 8.536 0 008.533-8.533A8.536 8.536 0 00358.4 25.6zm-91.802 409.6H245.41c-12.979 0-23.543 10.564-23.543 23.543v4.122c0 12.979 10.564 23.535 23.535 23.535h21.188c12.979 0 23.543-10.556 23.543-23.535v-4.122c0-12.979-10.564-23.543-23.535-23.543zm6.469 27.665a6.475 6.475 0 01-6.468 6.468H245.41c-3.575 0-6.477-2.901-6.477-6.468v-4.122a6.48 6.48 0 016.477-6.477h21.18a6.478 6.478 0 016.477 6.477v4.122z"/><path d="M370.227 0H141.781c-17.007 0-30.848 13.841-30.848 30.848v450.304c0 17.007 13.841 30.848 30.848 30.848h228.437c17.007 0 30.848-13.841 30.848-30.839V30.848C401.067 13.841 387.226 0 370.227 0zM384 481.152c0 7.595-6.178 13.781-13.773 13.781H141.781c-7.603 0-13.781-6.187-13.781-13.773V30.848c0-7.595 6.178-13.781 13.781-13.781h228.437c7.603 0 13.781 6.187 13.781 13.781v450.304z"/><path d="M392.533 51.2H119.467a8.536 8.536 0 00-8.533 8.533v358.4a8.536 8.536 0 008.533 8.533h273.067a8.536 8.536 0 008.533-8.533v-358.4c0-4.71-3.823-8.533-8.534-8.533zM384 409.6H128V68.267h256V409.6z"/></symbol><symbol viewBox="0 0 24 24" id="pinterest" xmlns="http://www.w3.org/2000/svg"><path d="M12.326 0C5.747.001 2.25 4.216 2.25 8.812c0 2.131 1.191 4.79 3.098 5.633.544.245.472-.054.94-1.844a.425.425 0 00-.102-.417c-2.726-3.153-.532-9.635 5.751-9.635 9.093 0 7.394 12.582 1.582 12.582-1.498 0-2.614-1.176-2.261-2.631.428-1.733 1.266-3.596 1.266-4.845 0-3.148-4.69-2.681-4.69 1.49 0 1.289.456 2.159.456 2.159S6.781 17.4 6.501 18.539c-.474 1.928.064 5.049.111 5.318.029.148.195.195.288.073.149-.195 1.973-2.797 2.484-4.678.186-.685.949-3.465.949-3.465.503.908 1.953 1.668 3.498 1.668 4.596 0 7.918-4.04 7.918-9.053C21.733 3.596 17.62 0 12.326 0z"/></symbol><symbol viewBox="0 0 96 96" id="plus" xmlns="http://www.w3.org/2000/svg"><path d="M75.5 44.3v7.5c0 1-.4 1.9-1.1 2.7s-1.6 1.1-2.7 1.1H55.5v16.3c0 1-.4 1.9-1.1 2.7s-1.6 1.1-2.7 1.1h-7.5c-1 0-1.9-.4-2.7-1.1s-1.1-1.6-1.1-2.7V55.5H24.3c-1 0-1.9-.4-2.7-1.1s-1.1-1.6-1.1-2.7v-7.5c0-1 .4-1.9 1.1-2.7s1.6-1.1 2.7-1.1h16.3V24.3c0-1 .4-1.9 1.1-2.7s1.6-1.1 2.7-1.1h7.5c1 0 1.9.4 2.7 1.1s1.1 1.6 1.1 2.7v16.3H72c1 0 1.9.4 2.7 1.1s.8 1.5.8 2.6z"/></symbol><symbol viewBox="0 0 512 512" id="tick" xmlns="http://www.w3.org/2000/svg"><path d="M497.36 69.995c-7.532-7.545-19.753-7.558-27.285-.032L238.582 300.845l-83.522-90.713c-7.217-7.834-19.419-8.342-27.266-1.126-7.841 7.217-8.343 19.425-1.126 27.266l97.126 105.481a19.273 19.273 0 0013.784 6.22c.141.006.277.006.412.006a19.317 19.317 0 0013.623-5.628L497.322 97.286c7.551-7.525 7.564-19.746.038-27.291z"/><path d="M492.703 236.703c-10.658 0-19.296 8.638-19.296 19.297 0 119.883-97.524 217.407-217.407 217.407-119.876 0-217.407-97.524-217.407-217.407 0-119.876 97.531-217.407 217.407-217.407 10.658 0 19.297-8.638 19.297-19.296C275.297 8.638 266.658 0 256 0 114.84 0 0 114.84 0 256c0 141.154 114.84 256 256 256 141.154 0 256-114.846 256-256 0-10.658-8.638-19.297-19.297-19.297z"/></symbol><symbol viewBox="0 0 512 512" id="twitter" xmlns="http://www.w3.org/2000/svg"><path d="M512 97.248c-19.04 8.352-39.328 13.888-60.48 16.576 21.76-12.992 38.368-33.408 46.176-58.016-20.288 12.096-42.688 20.64-66.56 25.408C411.872 60.704 384.416 48 354.464 48c-58.112 0-104.896 47.168-104.896 104.992 0 8.32.704 16.32 2.432 23.936-87.264-4.256-164.48-46.08-216.352-109.792-9.056 15.712-14.368 33.696-14.368 53.056 0 36.352 18.72 68.576 46.624 87.232-16.864-.32-33.408-5.216-47.424-12.928v1.152c0 51.008 36.384 93.376 84.096 103.136-8.544 2.336-17.856 3.456-27.52 3.456-6.72 0-13.504-.384-19.872-1.792 13.6 41.568 52.192 72.128 98.08 73.12-35.712 27.936-81.056 44.768-130.144 44.768-8.608 0-16.864-.384-25.12-1.44C46.496 446.88 101.6 464 161.024 464c193.152 0 298.752-160 298.752-298.688 0-4.64-.16-9.12-.384-13.568 20.832-14.784 38.336-33.248 52.608-54.496z"/></symbol><symbol viewBox="0 0 487.678 487.678" id="user"><path d="M377.996 282.347c-56.201-18.357-79.563-41.185-79.563-41.185l-1.881 1.793c-16.69 15.709-35.149 24.944-51.965 24.944H243c-16.815 0-35.274-9.235-51.964-24.944l-1.882-1.793s-23.36 22.827-79.562 41.185c-82.964 30.992-58.053 157.119-58.077 158.096 2.613 14.047 4.136 18.875 5.463 19.417 83.314 37.091 290.319 37.091 373.634 0 1.327-.542 2.85-5.37 5.463-19.417-.024-.977 25.22-126.603-58.079-158.096z"/><path d="M330.924 121.441l-.696-.755c-4.668-4.274-4.303-4.029-4.303-4.029s8.142-41.083 1.613-60.511c-10.25-31.027-71.475-51.822-83.755-54.239.002-.023-7.469-1.518-7.946-1.521 0 0-9.659-1.953-20.854 2.93-7.291 2.805-45.408 20.09-56.227 52.83-6.528 19.428 1.614 60.511 1.614 60.511s.365-.245-4.304 4.029l-.695.755c-3.158 3.586-2.378 14.806 1.074 26.479 3.128 11.695 7.205 14.838 8.182 17.577 9.903 46.497 44.338 86.197 79.429 86.197s67.707-39.7 77.61-86.197c.978-2.738 5.055-5.882 8.183-17.577 3.452-11.674 4.323-23.664 1.075-26.479z"/></symbol><symbol viewBox="0 0 24 24" id="wordpress" xmlns="http://www.w3.org/2000/svg"><path d="M12 0C5.385 0 0 5.381 0 12c0 6.615 5.385 12 12 12s12-5.385 12-12c0-6.62-5.385-12-12-12zM1.21 11.999c0-1.563.333-3.048.934-4.389l5.148 14.1a10.794 10.794 0 01-6.082-9.711zM12 22.79c-1.06 0-2.081-.155-3.048-.441l3.237-9.406 3.315 9.087c.024.054.049.101.077.15-1.118.392-2.323.61-3.581.61zm1.485-15.845v-.001a22.684 22.684 0 001.233-.101c.581-.068.513-.924-.068-.891 0 0-1.747.135-2.874.135-1.06 0-2.841-.135-2.841-.135-.58-.034-.647.857-.067.891 0 0 .551.068 1.132.101l1.679 4.606-2.361 7.079L5.39 6.944c.649-.034 1.234-.101 1.234-.101.581-.068.513-.924-.068-.891 0 0-1.747.135-2.874.135-.203 0-.441-.005-.697-.014A10.781 10.781 0 0112 1.21c2.807 0 5.366 1.075 7.287 2.83a1.333 1.333 0 00-.14-.009c-1.06 0-1.81.924-1.81 1.916 0 .89.513 1.64 1.06 2.531.411.716.891 1.64.891 2.976 0 .924-.353 1.993-.823 3.489l-1.075 3.595zm7.985-.122a10.746 10.746 0 011.321 5.178c0 3.982-2.158 7.456-5.366 9.324l-.001-.001 3.295-9.528c.614-1.539.823-2.767.823-3.866a7.99 7.99 0 00-.072-1.107z"/></symbol></svg>